# xmcd
#
# Track frame offsets:
#	150
#	16575
#	32120
#	46702
#	64387
#	84725
#	100937
#	118600
#	133822
#	148215
#	164515
#	181572
#
# Disc length: 2611 seconds
#
# Revision: 1
# Processed by: cddbd v1.5.2PL0 Copyright (c) Steve Scherf et al.
# Submitted via: audiograbber 1.83.01
#
DISCID=9f0a310c
DTITLE=папайыстас мийос [1998] - танидиа йи омеияа [сТИВОИ Баццекгс силос]
DYEAR=1998
DGENRE=
TTITLE0=лоу 'кеиьес поку [жаиг латсоу]
TTITLE1=лг лекацвокеис [ливакгс дглгтяиадгс]
TTITLE2=то кахос [баццекгс йомитопоукос]
TTITLE3=ма ва тг думалг [ливакгс дглгтяиадгс
TTITLE4=то танили [баццекгс йомитопоукос]
TTITLE5=ваяафеи [вягстос ацяажиытгс]
TTITLE6=ацапгс коциа [ливакгс дглгтяиадгс]
TTITLE7=айяоциаки лацийо [вяусоука стауяоу]
TTITLE8=лика лоу ци' ацапг [ливакгс дглгтяиадгс]
TTITLE9=мувтеяи мг диадяолг [мийос папайыстас]
TTITLE10=евеи сгламеи г ыяа [баццекгс йомитопоукос]
TTITLE11=басикиас циа памгцуяиа [баццекгс йомитопоукос]
EXTD=
EXTT0=
EXTT1=
EXTT2=
EXTT3=
EXTT4=
EXTT5=
EXTT6=
EXTT7=
EXTT8=
EXTT9=
EXTT10=
EXTT11=
PLAYORDER=
